<mxfile host="app.diagrams.net" agent="Mozilla/5.0 (Windows NT 10.0; Win64; x64) AppleWebKit/537.36 (KHTML, like Gecko) Chrome/134.0.0.0 Safari/537.36" version="26.1.0">
  <diagram name="ページ1" id="9ZAJ1862yd1nWu-Xj8rg">
    <mxGraphModel dx="333" dy="190" grid="1" gridSize="10" guides="1" tooltips="1" connect="1" arrows="1" fold="1" page="1" pageScale="1" pageWidth="827" pageHeight="1169" math="1" shadow="0">
      <root>
        <mxCell id="0" />
        <mxCell id="1" parent="0" />
        <mxCell id="5pgRnD0vVcWi5cscuRNn-1" value="ABCDE・・・VWXYZ" style="rounded=0;whiteSpace=wrap;html=1;fillColor=#dae8fc;strokeColor=#6c8ebf;" parent="1" vertex="1">
          <mxGeometry x="320" y="260" width="130" height="20" as="geometry" />
        </mxCell>
        <mxCell id="5pgRnD0vVcWi5cscuRNn-3" value="ABCDE・・・VWXYZ" style="rounded=0;whiteSpace=wrap;html=1;fillColor=#dae8fc;strokeColor=#6c8ebf;" parent="1" vertex="1">
          <mxGeometry x="340" y="300" width="130" height="20" as="geometry" />
        </mxCell>
        <mxCell id="5pgRnD0vVcWi5cscuRNn-6" value="" style="rounded=0;whiteSpace=wrap;html=1;fillColor=#f8cecc;strokeColor=#b85450;" parent="1" vertex="1">
          <mxGeometry x="470" y="300" width="50" height="20" as="geometry" />
        </mxCell>
        <mxCell id="5pgRnD0vVcWi5cscuRNn-8" value="WXYZ" style="rounded=0;whiteSpace=wrap;html=1;fillColor=#d5e8d4;strokeColor=#82b366;" parent="1" vertex="1">
          <mxGeometry x="280" y="260" width="40" height="20" as="geometry" />
        </mxCell>
        <mxCell id="5pgRnD0vVcWi5cscuRNn-11" value="WXYZ" style="rounded=0;whiteSpace=wrap;html=1;fillColor=#d5e8d4;strokeColor=#82b366;" parent="1" vertex="1">
          <mxGeometry x="300" y="300" width="40" height="20" as="geometry" />
        </mxCell>
        <mxCell id="5pgRnD0vVcWi5cscuRNn-12" value="" style="rounded=0;whiteSpace=wrap;html=1;fillColor=#f8cecc;strokeColor=#b85450;" parent="1" vertex="1">
          <mxGeometry x="250" y="300" width="50" height="20" as="geometry" />
        </mxCell>
        <mxCell id="5pgRnD0vVcWi5cscuRNn-13" value="" style="rounded=0;whiteSpace=wrap;html=1;fillColor=#f8cecc;strokeColor=#b85450;" parent="1" vertex="1">
          <mxGeometry x="450" y="260" width="50" height="20" as="geometry" />
        </mxCell>
        <mxCell id="5pgRnD0vVcWi5cscuRNn-14" value="" style="rounded=0;whiteSpace=wrap;html=1;fillColor=#f8cecc;strokeColor=#b85450;" parent="1" vertex="1">
          <mxGeometry x="230" y="260" width="50" height="20" as="geometry" />
        </mxCell>
        <mxCell id="5pgRnD0vVcWi5cscuRNn-16" value="" style="shape=curlyBracket;whiteSpace=wrap;html=1;rounded=1;flipH=1;labelPosition=right;verticalLabelPosition=middle;align=left;verticalAlign=middle;rotation=-90;" parent="1" vertex="1">
          <mxGeometry x="420" y="230" width="20" height="38" as="geometry" />
        </mxCell>
        <mxCell id="5pgRnD0vVcWi5cscuRNn-18" value="" style="shape=curlyBracket;whiteSpace=wrap;html=1;rounded=1;flipH=1;labelPosition=right;verticalLabelPosition=middle;align=left;verticalAlign=middle;rotation=-90;" parent="1" vertex="1">
          <mxGeometry x="290" y="230" width="20" height="38" as="geometry" />
        </mxCell>
        <mxCell id="5pgRnD0vVcWi5cscuRNn-19" value="" style="curved=1;endArrow=classic;html=1;rounded=0;" parent="1" edge="1">
          <mxGeometry width="50" height="50" relative="1" as="geometry">
            <mxPoint x="430" y="230" as="sourcePoint" />
            <mxPoint x="300" y="230" as="targetPoint" />
            <Array as="points">
              <mxPoint x="430" y="200" />
              <mxPoint x="300" y="200" />
            </Array>
          </mxGeometry>
        </mxCell>
        <mxCell id="5pgRnD0vVcWi5cscuRNn-20" value="コピー" style="text;html=1;align=center;verticalAlign=middle;whiteSpace=wrap;rounded=0;" parent="1" vertex="1">
          <mxGeometry x="330" y="170" width="60" height="30" as="geometry" />
        </mxCell>
        <mxCell id="5pgRnD0vVcWi5cscuRNn-21" value="" style="rounded=0;whiteSpace=wrap;html=1;fillColor=none;dashed=1;" parent="1" vertex="1">
          <mxGeometry x="320" y="236" width="130" height="100" as="geometry" />
        </mxCell>
        <mxCell id="5pgRnD0vVcWi5cscuRNn-22" value="先行波" style="text;html=1;align=center;verticalAlign=middle;whiteSpace=wrap;rounded=0;" parent="1" vertex="1">
          <mxGeometry x="170" y="255" width="60" height="30" as="geometry" />
        </mxCell>
        <mxCell id="5pgRnD0vVcWi5cscuRNn-23" value="遅延波" style="text;html=1;align=center;verticalAlign=middle;whiteSpace=wrap;rounded=0;" parent="1" vertex="1">
          <mxGeometry x="170" y="295" width="60" height="30" as="geometry" />
        </mxCell>
        <mxCell id="5pgRnD0vVcWi5cscuRNn-25" value="$$T_{OFDM}$$" style="text;html=1;align=center;verticalAlign=middle;whiteSpace=wrap;rounded=0;" parent="1" vertex="1">
          <mxGeometry x="330" y="210" width="60" height="30" as="geometry" />
        </mxCell>
        <mxCell id="5pgRnD0vVcWi5cscuRNn-26" value="$$T_{GI}$$" style="text;html=1;align=center;verticalAlign=middle;whiteSpace=wrap;rounded=0;" parent="1" vertex="1">
          <mxGeometry x="250" y="220" width="60" height="30" as="geometry" />
        </mxCell>
        <mxCell id="RqlaAVpSdUbD9YO614Q9-2" value="&lt;font style=&quot;font-size: 18px;&quot;&gt;$$\tau$$&lt;/font&gt;" style="text;html=1;align=center;verticalAlign=middle;whiteSpace=wrap;rounded=0;" vertex="1" parent="1">
          <mxGeometry x="230" y="325" width="20" height="10" as="geometry" />
        </mxCell>
        <mxCell id="RqlaAVpSdUbD9YO614Q9-5" value="" style="endArrow=none;html=1;rounded=0;entryX=1.002;entryY=0.833;entryDx=0;entryDy=0;entryPerimeter=0;" edge="1" parent="1" target="5pgRnD0vVcWi5cscuRNn-22">
          <mxGeometry width="50" height="50" relative="1" as="geometry">
            <mxPoint x="230" y="340" as="sourcePoint" />
            <mxPoint x="230.64999999999998" y="280" as="targetPoint" />
          </mxGeometry>
        </mxCell>
        <mxCell id="RqlaAVpSdUbD9YO614Q9-6" value="" style="endArrow=none;html=1;rounded=0;entryX=0;entryY=0;entryDx=0;entryDy=0;" edge="1" parent="1" target="5pgRnD0vVcWi5cscuRNn-12">
          <mxGeometry width="50" height="50" relative="1" as="geometry">
            <mxPoint x="250" y="340" as="sourcePoint" />
            <mxPoint x="250" y="320" as="targetPoint" />
          </mxGeometry>
        </mxCell>
        <mxCell id="RqlaAVpSdUbD9YO614Q9-11" value="" style="triangle;whiteSpace=wrap;html=1;fillColor=#000000;" vertex="1" parent="1">
          <mxGeometry x="245" y="318" width="4" height="4" as="geometry" />
        </mxCell>
        <mxCell id="RqlaAVpSdUbD9YO614Q9-13" value="" style="triangle;whiteSpace=wrap;html=1;fillColor=#000000;rotation=-180;" vertex="1" parent="1">
          <mxGeometry x="231" y="318" width="4" height="4" as="geometry" />
        </mxCell>
        <mxCell id="RqlaAVpSdUbD9YO614Q9-14" value="" style="endArrow=none;html=1;rounded=0;exitX=0;exitY=0.5;exitDx=0;exitDy=0;entryX=1;entryY=0.5;entryDx=0;entryDy=0;" edge="1" parent="1" source="RqlaAVpSdUbD9YO614Q9-13" target="RqlaAVpSdUbD9YO614Q9-11">
          <mxGeometry width="50" height="50" relative="1" as="geometry">
            <mxPoint x="230" y="350" as="sourcePoint" />
            <mxPoint x="280" y="300" as="targetPoint" />
            <Array as="points">
              <mxPoint x="248" y="320" />
            </Array>
          </mxGeometry>
        </mxCell>
      </root>
    </mxGraphModel>
  </diagram>
</mxfile>
